<svg width="31" height="31" viewBox="0 0 31 31" fill="none" xmlns="http://www.w3.org/2000/svg">
<rect width="31" height="31" rx="2" fill="#FDFF9D"/>
<path d="M17.4125 23.1146H13.5875C10.0883 23.1146 8.60083 21.62 8.60083 18.1279V14.9475C8.60083 14.6571 8.84166 14.4162 9.13208 14.4162C9.4225 14.4162 9.66333 14.6571 9.66333 14.9475V18.1279C9.66333 21.025 10.6904 22.0521 13.5875 22.0521H17.4054C20.3025 22.0521 21.3296 21.025 21.3296 18.1279V14.9475C21.3296 14.6571 21.5704 14.4162 21.8608 14.4162C22.1512 14.4162 22.3921 14.6571 22.3921 14.9475V18.1279C22.3992 21.62 20.9046 23.1146 17.4125 23.1146Z" fill="#292D32"/>
<path d="M15.5 16.0313C14.7208 16.0313 14.0125 15.7267 13.5096 15.1671C13.0066 14.6075 12.7729 13.8779 12.8508 13.0988L13.3254 8.36709C13.3537 8.09792 13.5804 7.88542 13.8566 7.88542H17.1646C17.4408 7.88542 17.6675 8.09084 17.6958 8.36709L18.1704 13.0988C18.2483 13.8779 18.0146 14.6075 17.5116 15.1671C16.9875 15.7267 16.2791 16.0313 15.5 16.0313ZM14.3312 8.94792L13.9062 13.205C13.8566 13.6796 13.9983 14.1258 14.2958 14.4517C14.8979 15.1175 16.1021 15.1175 16.7041 14.4517C17.0016 14.1188 17.1433 13.6725 17.0937 13.205L16.6687 8.94792H14.3312Z" fill="#292D32"/>
<path d="M19.9696 16.0313C18.5316 16.0313 17.2496 14.8696 17.1008 13.4388L16.605 8.47334C16.5908 8.32459 16.6404 8.17584 16.7396 8.06251C16.8387 7.94917 16.9804 7.88542 17.1362 7.88542H19.2966C21.3791 7.88542 22.3496 8.75667 22.64 10.8958L22.8383 12.865C22.9233 13.7008 22.6683 14.4942 22.1229 15.0963C21.5775 15.6983 20.8125 16.0313 19.9696 16.0313ZM17.7241 8.94792L18.1633 13.3325C18.2554 14.2179 19.0771 14.9688 19.9696 14.9688C20.5079 14.9688 20.9896 14.7633 21.3366 14.3879C21.6766 14.0125 21.8325 13.5096 21.7829 12.9713L21.5846 11.0233C21.365 9.4225 20.8479 8.94792 19.2966 8.94792H17.7241Z" fill="#292D32"/>
<path d="M10.995 16.0313C10.1521 16.0313 9.3871 15.6983 8.84168 15.0963C8.29627 14.4942 8.04127 13.7008 8.12627 12.865L8.31752 10.9171C8.61502 8.75667 9.58543 7.88542 11.6679 7.88542H13.8283C13.9771 7.88542 14.1188 7.94917 14.225 8.06251C14.3313 8.17584 14.3738 8.32459 14.3596 8.47334L13.8638 13.4388C13.715 14.8696 12.4329 16.0313 10.995 16.0313ZM11.6679 8.94792C10.1167 8.94792 9.5996 9.41542 9.37293 11.0375L9.18168 12.9713C9.12502 13.5096 9.28793 14.0125 9.62793 14.3879C9.96793 14.7633 10.4496 14.9688 10.995 14.9688C11.8875 14.9688 12.7163 14.2179 12.8013 13.3325L13.2404 8.94792H11.6679Z" fill="#292D32"/>
<path d="M17.2709 23.1146H13.7292C13.4388 23.1146 13.1979 22.8738 13.1979 22.5833V20.8125C13.1979 19.325 14.0125 18.5104 15.5 18.5104C16.9875 18.5104 17.8021 19.325 17.8021 20.8125V22.5833C17.8021 22.8738 17.5613 23.1146 17.2709 23.1146ZM14.2604 22.0521H16.7396V20.8125C16.7396 19.92 16.3925 19.5729 15.5 19.5729C14.6075 19.5729 14.2604 19.92 14.2604 20.8125V22.0521Z" fill="#292D32"/>
</svg>
